<svg width="35.000000" height="35.000000" viewBox="0 0 35 35" fill="none" xmlns="http://www.w3.org/2000/svg" xmlns:xlink="http://www.w3.org/1999/xlink">
	<desc>
			Created with Pixso.
	</desc>
	<defs>
		<clipPath id="clip6_18">
			<rect id="9035001_server_icon" width="35.000000" height="35.000000" fill="white" fill-opacity="0"/>
		</clipPath>
	</defs>
	<g clip-path="url(#clip6_18)">
		<path id="path" d="M17.5 29.25C13.92 29.25 9.88 28.46 6.7 27.13C5.53 26.64 4.53 25.85 3.72 25.22C3.63 25.15 3.53 25.14 3.43 25.19C3.33 25.24 3.28 25.32 3.28 25.44L3.28 26.3C3.28 28.22 4.88 29.94 7.8 31.14C10.41 32.21 13.85 32.81 17.5 32.81C21.14 32.81 24.58 32.21 27.19 31.14C30.11 29.94 31.71 28.22 31.71 26.3L31.71 25.44C31.71 25.32 31.66 25.24 31.56 25.19C31.46 25.14 31.36 25.15 31.27 25.22C30.46 25.85 29.46 26.64 28.29 27.13C25.11 28.46 21.07 29.25 17.5 29.25ZM31.71 8.64C31.66 6.75 30.06 5.06 27.2 3.87C24.59 2.78 21.14 2.18 17.5 2.18C13.85 2.18 10.4 2.78 7.79 3.87C4.94 5.06 3.34 6.75 3.28 8.63L3.28 9.84C3.28 10.28 3.63 10.97 4.28 11.53C5.04 12.19 6.17 12.85 7.54 13.42C10.47 14.65 14.19 15.38 17.5 15.38C20.8 15.38 24.52 14.65 27.45 13.42C28.82 12.85 29.95 12.19 30.71 11.53C31.36 10.97 31.71 10.28 31.71 9.84L31.71 8.64Z" fill="#FFFFFF" fill-opacity="1.000000" fill-rule="nonzero"/>
		<path id="path" d="M28.29 15.44C25.11 16.77 21.07 17.56 17.5 17.56C13.92 17.56 9.88 16.77 6.7 15.44C5.53 14.96 4.53 14.16 3.72 13.53C3.63 13.46 3.53 13.45 3.43 13.5C3.33 13.55 3.28 13.64 3.28 13.75L3.28 15.85C3.28 16.29 3.63 16.84 4.28 17.41C5.04 18.07 6.17 18.73 7.54 19.3C10.47 20.53 14.19 21.25 17.5 21.25C20.8 21.25 24.52 20.52 27.45 19.3C28.82 18.73 29.95 18.07 30.71 17.41C31.36 16.84 31.71 16.29 31.71 15.85L31.71 13.75C31.71 13.64 31.66 13.56 31.56 13.5C31.46 13.45 31.36 13.46 31.27 13.53C30.46 14.16 29.46 14.96 28.29 15.44Z" fill="#FFFFFF" fill-opacity="1.000000" fill-rule="nonzero"/>
		<path id="path" d="M28.29 21.32C25.11 22.65 21.07 23.44 17.5 23.44C13.92 23.44 9.88 22.65 6.7 21.32C5.53 20.83 4.53 20.04 3.72 19.41C3.63 19.34 3.53 19.33 3.43 19.38C3.33 19.43 3.28 19.51 3.28 19.63L3.28 21.66C3.28 22.1 3.63 22.65 4.28 23.22C5.04 23.88 6.17 24.54 7.54 25.11C10.47 26.34 14.19 27.07 17.5 27.07C20.8 27.07 24.52 26.34 27.45 25.11C28.82 24.54 29.95 23.88 30.71 23.22C31.36 22.65 31.71 22.1 31.71 21.66L31.71 19.63C31.71 19.51 31.66 19.43 31.56 19.38C31.46 19.33 31.36 19.34 31.27 19.41C30.46 20.04 29.46 20.83 28.29 21.32Z" fill="#FFFFFF" fill-opacity="1.000000" fill-rule="nonzero"/>
	</g>
</svg>
