<svg width="35.000000" height="35.000000" viewBox="0 0 35 35" fill="none" xmlns="http://www.w3.org/2000/svg" xmlns:xlink="http://www.w3.org/1999/xlink">
	<desc>
			Created with Pixso.
	</desc>
	<defs>
		<clipPath id="clip6_13">
			<rect id="290121_computer_desktop_monitor_computer screen_icon" width="35.000000" height="35.000000" fill="white" fill-opacity="0"/>
		</clipPath>
	</defs>
	<g clip-path="url(#clip6_13)">
		<path id="path" d="M31.35 25.52L21.28 25.52C21.72 27.92 23.16 29.58 24.49 30.62L26.25 30.62C26.73 30.62 26.97 30.86 26.97 31.35C26.97 31.84 26.73 32.08 26.25 32.08L8.74 32.08C8.26 32.08 8.02 31.84 8.02 31.35C8.02 30.86 8.26 30.62 8.74 30.62L10.5 30.62C11.83 29.58 13.27 27.92 13.71 25.52L3.64 25.52C2.84 25.52 2.15 25.23 1.58 24.66C1.01 24.09 0.72 23.4 0.72 22.6L0.72 5.83C0.72 5.02 1.01 4.34 1.58 3.77C2.15 3.2 2.84 2.91 3.64 2.91L31.35 2.91C32.15 2.91 32.84 3.2 33.41 3.77C33.98 4.34 34.27 5.02 34.27 5.83L34.27 22.6C34.27 23.4 33.98 24.09 33.41 24.66C32.84 25.23 32.15 25.52 31.35 25.52ZM12.68 30.62L22.31 30.62C21.15 29.39 20.11 27.72 19.79 25.52L15.2 25.52C14.88 27.72 13.84 29.39 12.68 30.62ZM32.81 5.83C32.81 5.43 32.67 5.08 32.38 4.8C32.1 4.51 31.75 4.37 31.35 4.37L3.64 4.37C3.24 4.37 2.89 4.51 2.61 4.8C2.32 5.08 2.18 5.43 2.18 5.83L2.18 19.68L32.81 19.68L32.81 5.83ZM32.81 21.14L2.18 21.14L2.18 22.6C2.18 23 2.32 23.35 2.61 23.63C2.89 23.92 3.24 24.06 3.64 24.06L31.35 24.06C31.75 24.06 32.1 23.92 32.38 23.63C32.67 23.35 32.81 23 32.81 22.6L32.81 21.14ZM17.5 23.33C17.01 23.33 16.77 23.09 16.77 22.6C16.77 22.11 17.01 21.87 17.5 21.87C17.98 21.87 18.22 22.11 18.22 22.6C18.22 23.09 17.98 23.33 17.5 23.33Z" fill="#FFFFFF" fill-opacity="1.000000" fill-rule="evenodd"/>
	</g>
</svg>
