<svg width="59.999512" height="59.999756" viewBox="0 0 59.9995 59.9998" fill="none" xmlns="http://www.w3.org/2000/svg" xmlns:xlink="http://www.w3.org/1999/xlink">
	<desc>
			Created with Pixso.
	</desc>
	<defs/>
	<rect id="rect" rx="29.999763" width="59.999527" height="59.999763" fill="#F0DB4F" fill-opacity="1.000000"/>
	<path id="path" d="M32.65 40.24C32.65 46.08 29.22 48.74 24.22 48.74C20.91 48.74 18.62 47.49 17.1 45.7C16.18 44.61 16.69 43.03 17.91 42.29C19.25 41.48 20.81 42.14 22.05 43.09C22.55 43.48 23.17 43.71 23.98 43.71C25.83 43.71 27.01 42.99 27.01 40.16L27.01 23.81C27.01 22.26 28.27 21 29.83 21C31.38 21 32.65 22.26 32.65 23.81L32.65 40.24Z" fill="#323330" fill-opacity="1.000000" fill-rule="nonzero"/>
	<path id="path" d="M45.99 49.07C41.98 49.07 39.06 47.61 37.17 45.47C36.2 44.37 36.71 42.73 37.98 42C39.27 41.25 40.87 41.76 42.01 42.73C42.98 43.57 44.21 44.08 45.87 44.08C48.2 44.08 49.7 42.92 49.7 41.3C49.7 39.37 48.17 38.69 45.58 37.55L44.18 36.95C40.11 35.22 37.41 33.04 37.41 28.44C37.41 24.21 40.64 21 45.66 21C48.41 21 50.55 21.72 52.24 23.52C53.18 24.53 52.76 26.09 51.6 26.83C50.34 27.64 48.77 27.01 47.45 26.31C46.93 26.03 46.34 25.91 45.65 25.91C44 25.91 42.96 26.96 42.96 28.32C42.96 30.01 44 30.69 46.43 31.75L47.83 32.35C52.63 34.4 55.32 36.5 55.32 41.22C55.32 46.28 51.33 49.07 45.99 49.07Z" fill="#323330" fill-opacity="1.000000" fill-rule="nonzero"/>
</svg>
