<svg width="60.000000" height="60.000000" viewBox="0 0 60 60" fill="none" xmlns="http://www.w3.org/2000/svg" xmlns:xlink="http://www.w3.org/1999/xlink">
	<desc>
			Created with Pixso.
	</desc>
	<defs>
		<clipPath id="clip18_18">
			<rect id="mobx-svgrepo-com" rx="30.000000" width="60.000000" height="60.000000" fill="white" fill-opacity="0"/>
		</clipPath>
	</defs>
	<g clip-path="url(#clip18_18)">
		<path id="path" d="M60 55.4L60 4.59C60 2.51 58.61 0.75 56.71 0.18L54.55 1.48L30.58 27.03L29.83 29.38L29.39 31.64L36.86 59.57L38.02 59.99L55.4 59.99C57.94 59.99 60 57.94 60 55.4Z" fill="#EA6618" fill-opacity="1.000000" fill-rule="nonzero"/>
		<path id="path" d="M0 4.59L0 55.4C0 56.97 0.78 58.36 1.99 59.19L3.46 58.48L28.83 31.32L29.83 29.38L29.86 27.51L22.96 1.24L21.91 0L4.59 0C2.05 0 0 2.05 0 4.59Z" fill="#D65813" fill-opacity="1.000000" fill-rule="nonzero"/>
		<path id="path" d="M29.83 29.38L56.71 0.18C56.29 0.06 55.85 0 55.4 0L21.91 0L29.83 29.38Z" fill="#E05E11" fill-opacity="1.000000" fill-rule="nonzero"/>
		<path id="path" d="M4.59 59.99L38.02 59.99L29.83 29.38L1.99 59.19C2.73 59.7 3.62 59.99 4.59 59.99Z" fill="#DE5C16" fill-opacity="1.000000" fill-rule="nonzero"/>
		<path id="path" d="M22.24 22.74L25.58 22.74C26.9 27.75 28.42 32.15 30.1 36.12C32.01 31.65 33.41 27.25 34.6 22.74L37.75 22.74C36.34 28.34 34.03 34 31.39 39.83L28.6 39.83C26.07 34.3 23.91 28.62 22.24 22.74ZM11.24 14.05L18.66 14.05L18.66 45.84L11.21 45.84L11.21 43.39L15.78 43.39L15.78 16.44L11.24 16.44L11.24 14.05ZM48.78 16.44L44.25 16.44L44.25 43.39L48.82 43.39L48.82 45.84L41.37 45.84L41.37 14.05L48.78 14.05L48.78 16.44Z" fill="#FFFFFF" fill-opacity="1.000000" fill-rule="nonzero"/>
	</g>
</svg>
