<svg width="60.000000" height="60.000061" viewBox="0 0 60 60.0001" fill="none" xmlns="http://www.w3.org/2000/svg" xmlns:xlink="http://www.w3.org/1999/xlink">
	<desc>
			Created with Pixso.
	</desc>
	<defs>
		<clipPath id="clip18_71">
			<rect id="mongo" width="59.999996" height="60.000000" fill="white" fill-opacity="0"/>
		</clipPath>
	</defs>
	<g clip-path="url(#clip18_71)">
		<circle id="circle" cx="30.000000" cy="30.000000" r="30.000000" fill="#13AA52" fill-opacity="1.000000"/>
		<path id="path" d="M38.01 26.33C36.12 17.97 31.64 15.22 31.16 14.17C30.63 13.42 30.1 12.11 30.1 12.11C30.09 12.08 30.07 12.04 30.06 12.01C30 12.75 29.98 13.03 29.27 13.78C28.19 14.63 22.62 19.3 22.17 28.8C21.75 37.66 28.57 42.95 29.49 43.62L29.6 43.69L29.6 43.69C29.6 43.73 29.89 45.8 30.09 47.98L30.82 47.98C30.99 46.44 31.24 44.9 31.58 43.38L31.64 43.34C32.05 43.05 32.44 42.73 32.81 42.38L32.86 42.34C34.82 40.53 38.34 36.34 38.31 29.66C38.3 28.54 38.2 27.43 38.01 26.33ZM30.02 38.62C30.02 38.62 30.02 26.19 30.43 26.19C30.75 26.19 31.16 42.22 31.16 42.22C30.59 42.15 30.02 39.58 30.02 38.62Z" fill="#FFFFFF" fill-opacity="1.000000" fill-rule="nonzero"/>
	</g>
</svg>
