<svg width="60.000000" height="60.000000" viewBox="0 0 60 60" fill="none" xmlns="http://www.w3.org/2000/svg" xmlns:xlink="http://www.w3.org/1999/xlink">
	<desc>
			Created with Pixso.
	</desc>
	<defs>
		<clipPath id="clip18_44">
			<rect id="nestjs-icon" width="56.000000" height="56.000000" transform="translate(2.000000 2.000000)" fill="white" fill-opacity="0"/>
		</clipPath>
	</defs>
	<rect id="Прямоугольник 10" rx="30.000000" width="60.000000" height="60.000000" fill="#FFFFFF" fill-opacity="1.000000"/>
	<g clip-path="url(#clip18_44)">
		<path id="path" d="M34.97 2.1C34.56 2.1 34.19 2.19 33.84 2.3C34.58 2.8 34.98 3.44 35.19 4.18C35.2 4.28 35.28 4.63 35.28 4.72C35.34 5.99 34.95 6.15 34.67 6.9C34.25 7.87 34.37 8.91 34.87 9.75C34.32 6.09 37.54 5.85 38.11 4.71C38.15 3.71 37.33 3.05 36.67 2.59C36.05 2.21 35.48 2.1 34.97 2.1ZM39.56 2.93C39.5 3.26 39.55 3.18 39.53 3.35L39.5 3.73L39.4 4.08C39.37 4.19 39.33 4.31 39.28 4.42L39.12 4.75L38.7 5.35C38.6 5.42 38.27 5.78 38.17 5.85C37.86 6.09 37.51 6.26 37.2 6.48C37.1 6.55 36.72 6.84 36.63 6.93C36.54 7.03 36.21 7.39 36.15 7.49L35.79 8.12L35.68 8.45L35.58 8.82C35.56 8.87 35.53 9.12 35.51 9.18L35.5 9.54C35.5 9.66 35.53 10.04 35.56 10.17C35.59 10.3 35.6 10.4 35.63 10.52L35.74 10.86L32.52 9.77L30.84 9.34L29.93 9.13C29.06 8.95 28.18 8.82 27.29 8.73L24.63 8.59L22.74 8.66C21.85 8.72 20.97 8.83 20.09 8.98L19.44 9.1L18.14 9.38L17.49 9.56L16.86 9.83L16.39 10.05L15.91 10.28L15.36 10.55C15.32 10.59 14.98 10.76 14.94 10.77L14.57 10.99C14.45 11.06 14.33 11.13 14.22 11.21L13.61 11.64L13.06 12.09L12.45 12.66C12.42 12.7 12.13 12.99 12.11 13.01C12.1 13.05 11.82 13.32 11.8 13.35L11.47 13.7L10.69 14.45C10.43 14.68 10.16 14.9 9.88 15.08L9.02 15.63C8.73 15.79 8.42 15.93 8.1 16.06C7.8 16.19 7.48 16.31 7.16 16.41C6.56 16.54 5.93 16.78 5.4 16.83C5.28 16.83 5.15 16.86 5.03 16.87L4.67 16.96L4.32 17.09C4.2 17.14 4.09 17.19 3.98 17.25C3.88 17.31 3.46 17.6 3.37 17.69L2.84 18.24C2.76 18.35 2.48 18.79 2.42 18.91L2.26 19.28L2.13 19.66L2.05 20.01C2.01 20.18 2.01 20.36 2 20.44C1.99 20.5 2 20.86 2.01 20.92L2.17 21.46L2.51 22C2.6 22.08 2.94 22.39 3.03 22.46C3.38 22.77 3.46 22.87 3.92 23.1C3.93 23.21 4.25 23.53 4.28 23.65C4.31 23.77 4.35 23.88 4.4 23.99C4.41 24.03 4.54 24.32 4.55 24.33L4.95 24.95C5.03 25.04 5.36 25.39 5.46 25.47C5.56 25.55 5.95 25.82 6.07 25.88C6.18 25.94 6.29 25.99 6.4 26.04C6.5 26.06 6.88 26.2 6.94 26.21C6.89 26.99 6.88 27.73 7 27.99C7.13 28.28 7.76 27.39 8.4 26.39C8.31 27.38 8.25 28.55 8.4 28.9C8.54 29.24 9.42 28.13 10.18 26.89C20.43 24.52 29.79 31.6 30.77 41.61C30.58 40.05 28.66 39.18 27.78 39.4C27.35 40.47 26.61 41.84 25.42 42.69C25.52 41.73 25.48 40.75 25.27 39.8C24.95 41.15 24.35 42.36 23.48 43.44C22.11 43.54 20.74 42.88 20.01 41.88L19.78 41.39C19.76 41.28 19.68 40.89 19.68 40.77C19.69 40.67 19.72 40.35 19.75 40.25C19.81 40.15 19.95 39.74 20.02 39.64C20.27 38.98 20.27 38.38 19.82 38.05C19.76 38.04 19.42 37.86 19.36 37.84L18.94 37.73C18.84 37.71 18.43 37.66 18.32 37.66C18.21 37.66 17.89 37.68 17.78 37.71L17.17 37.87L16.61 38.15C13.24 40.34 15.26 45.49 17.55 46.98C16.69 47.14 15.8 47.33 15.56 47.52C16.15 47.92 16.8 48.25 17.48 48.52L19.82 49.18C21.02 49.44 22.24 49.53 23.47 49.45C26.69 49.22 29.48 48 31.84 45.8C34.2 43.6 35.61 40.9 36.08 37.71L36.16 38.09L36.3 38.9L36.36 39.29L36.39 39.72L36.42 40.19C36.42 40.27 36.44 40.58 36.44 40.66L36.42 41.12C36.42 41.17 36.41 41.52 36.4 41.59C36.38 41.64 36.37 42 36.37 42.04L36.33 42.38L36.26 42.93L36.17 43.36L36.09 43.79L35.97 44.24L35.85 44.69L35.71 45.16L35.39 46L35.22 46.42L35.02 46.82C34.05 48.76 32.62 50.52 30.88 51.82C30.77 51.89 30.65 51.98 30.54 52.07L30.12 52.36L30.54 52.07L31.92 52.16L32.44 52.04L33.01 51.91C34.45 51.57 35.85 51.09 37.2 50.52C34.9 53.67 31.82 56.19 28.22 57.86C29.88 57.74 31.54 57.47 33.14 57C38.97 55.28 43.88 51.36 46.81 46.08C46.21 49.47 44.91 52.57 42.92 55.38C44.33 54.46 45.61 53.39 46.79 52.17C50.1 48.71 52.13 44.62 52.88 39.88C53.37 42.16 53.51 44.53 53.3 46.85C63.74 32.29 54.16 17.19 50.15 13.21C50.12 13.38 50.08 13.49 50.06 13.66C50.02 13.99 49.98 14.31 49.92 14.63C49.86 14.95 49.76 15.26 49.67 15.59C49.59 15.91 49.46 16.21 49.33 16.51C49.2 16.82 49.05 17.11 48.9 17.4C48.74 17.68 48.56 17.95 48.38 18.22C48.19 18.49 47.99 18.76 47.78 19C47.57 19.25 47.34 19.49 47.1 19.72C46.96 19.86 46.83 19.97 46.68 20.09L46.35 20.38C46.09 20.58 45.82 20.77 45.54 20.94C45.26 21.12 44.98 21.28 44.69 21.43C44.38 21.58 44.08 21.71 43.77 21.84C43.47 21.95 43.15 22.06 42.83 22.14C42.52 22.23 42.18 22.3 41.87 22.36C41.55 22.42 41.2 22.45 40.88 22.48C40.65 22.49 40.42 22.51 40.22 22.51C39.89 22.51 39.56 22.48 39.24 22.45C38.92 22.42 38.58 22.38 38.25 22.3C37.93 22.24 37.6 22.16 37.29 22.06C37.6 22.03 37.91 22 38.23 21.94C38.56 21.89 38.88 21.81 39.2 21.73C39.52 21.64 39.84 21.54 40.14 21.42C40.44 21.31 40.76 21.16 41.05 21.02C41.35 20.87 41.64 20.71 41.92 20.54C42.19 20.35 42.47 20.16 42.73 19.96C42.99 19.76 43.23 19.54 43.47 19.31C43.71 19.09 43.93 18.85 44.15 18.6C44.37 18.36 44.57 18.08 44.76 17.82L45.26 17.02C45.42 16.73 45.57 16.44 45.69 16.13C45.82 15.83 45.94 15.52 46.04 15.21C46.14 14.89 46.21 14.59 46.28 14.27C46.36 13.95 46.4 13.62 46.43 13.3C46.46 12.98 46.49 12.64 46.49 12.32C46.49 12.09 46.47 11.85 46.45 11.66C46.42 11.32 46.38 11 46.34 10.69C46.28 10.36 46.21 10.04 46.12 9.72C46.02 9.41 45.92 9.1 45.8 8.79C45.68 8.49 45.54 8.18 45.4 7.9C45.26 7.61 45.08 7.32 44.9 7.05C44.72 6.77 44.52 6.51 44.32 6.25L43.66 5.51C43.54 5.39 43.41 5.27 43.29 5.15C42.64 4.65 41.97 4.18 41.27 3.73C40.8 3.43 40.01 3.08 39.56 2.93Z" fill="#EA2845" fill-opacity="1.000000" fill-rule="evenodd"/>
	</g>
</svg>
