<svg width="60.000000" height="60.000000" viewBox="0 0 60 60" fill="none" xmlns="http://www.w3.org/2000/svg" xmlns:xlink="http://www.w3.org/1999/xlink">
	<desc>
			Created with Pixso.
	</desc>
	<defs>
		<clipPath id="clip18_30">
			<rect id="next-js-svgrepo-com" width="60.000000" height="60.000000" fill="white" fill-opacity="0"/>
		</clipPath>
	</defs>
	<rect id="Прямоугольник 11" rx="30.000000" width="60.000000" height="60.000000" fill="#FFFFFF" fill-opacity="1.000000"/>
	<g clip-path="url(#clip18_30)">
		<path id="path" d="M45.96 55.4C46.09 55.32 46.21 55.28 46.18 55.28C46.1 55.31 46.03 55.36 45.96 55.4ZM28.03 0.02C27.89 0.02 27.48 0.06 27.12 0.09C18.6 0.86 10.62 5.45 5.56 12.53C2.77 16.4 0.95 20.9 0.27 25.63C0.03 27.28 0 27.77 0 30C0 32.24 0.03 32.72 0.27 34.37C1.9 45.64 9.92 55.1 20.79 58.61C22.74 59.23 24.79 59.66 27.12 59.93C28.03 60.03 31.96 60.03 32.86 59.93C36.9 59.48 40.31 58.48 43.68 56.76C44.19 56.5 44.29 56.43 44.22 56.37C42.57 54.2 40.95 52.02 39.33 49.82L34.54 43.35L28.53 34.45C26.53 31.47 24.52 28.5 22.48 25.55C22.46 25.55 22.43 29.51 22.42 34.33C22.4 42.78 22.4 43.12 22.29 43.32C22.18 43.55 22.01 43.74 21.77 43.85C21.59 43.94 21.42 43.96 20.53 43.96L19.52 43.96L19.26 43.8C19.09 43.69 18.95 43.54 18.87 43.37L18.74 43.1L18.75 31.34L18.77 19.59L18.95 19.35C19.07 19.21 19.22 19.09 19.38 19C19.63 18.88 19.73 18.86 20.74 18.86C21.93 18.86 22.13 18.91 22.44 19.25C24.87 22.88 27.29 26.51 29.68 30.15C33.57 36.06 38.9 44.13 41.51 48.08L46.18 55.28L46.5 55.12C48.79 53.6 50.87 51.78 52.66 49.71C56.44 45.39 58.89 40.06 59.73 34.38C59.97 32.73 60 32.24 60 30.01C60 27.77 59.97 27.29 59.73 25.64C58.09 14.37 50.07 4.91 39.21 1.4C37.17 0.76 35.08 0.32 32.97 0.1C32.4 0.04 28.52 -0.04 28.03 0.02ZM40.31 18.16C40.59 18.29 40.8 18.55 40.9 18.84C40.95 19 40.96 22.26 40.95 29.61L40.93 40.15L39.08 37.3L37.21 34.45L37.21 26.79C37.21 21.83 37.23 19.05 37.26 18.91C37.35 18.6 37.56 18.33 37.85 18.17C38.08 18.05 38.17 18.04 39.1 18.04C39.96 18.04 40.11 18.05 40.31 18.16Z" fill="#000000" fill-opacity="1.000000" fill-rule="nonzero"/>
	</g>
</svg>
