<svg width="60.264160" height="60.239136" viewBox="0 0 60.2642 60.2391" fill="none" xmlns="http://www.w3.org/2000/svg" xmlns:xlink="http://www.w3.org/1999/xlink">
	<desc>
			Created with Pixso.
	</desc>
	<defs>
		<clipPath id="clip18_67">
			<rect id="nodejs-icon" rx="30.000000" width="60.000000" height="60.000000" transform="translate(0.264160 0.239136)" fill="white" fill-opacity="0"/>
		</clipPath>
	</defs>
	<rect id="Прямоугольник 13" rx="30.000000" width="60.000000" height="60.000000" fill="#FFFFFF" fill-opacity="1.000000"/>
	<g clip-path="url(#clip18_67)">
		<path id="path" d="M27.74 1.03C29.24 0.19 31.15 0.18 32.61 1.03L55.01 13.66C56.41 14.45 57.35 16.01 57.33 17.62L57.33 42.94C57.34 44.62 56.31 46.21 54.84 46.99L32.56 59.55C30.89 60.48 29.24 60.43 27.61 59.41L20.93 55.55C20.47 55.28 19.96 55.06 19.64 54.62C19.92 54.24 20.43 54.19 20.84 54.02C21.77 53.73 22.62 53.27 23.48 52.79C23.69 52.64 23.96 52.7 24.17 52.84L29.87 56.13C30.27 56.37 30.68 56.06 31.03 55.86L52.91 43.52C53.18 43.39 53.33 43.1 53.3 42.8L53.3 17.74C53.33 17.4 53.14 17.09 52.83 16.95L30.62 4.44C30.33 4.24 30.03 4.24 29.74 4.44L7.56 16.98C7.26 17.11 7.05 17.42 7.09 17.76L7.09 42.82C7.06 43.12 7.22 43.4 7.49 43.53L13.42 46.87C14.53 47.47 15.9 47.81 17.13 47.37C18.35 46.91 18.95 46.03 18.95 44.73L18.95 19.81C18.93 19.44 19.28 19.14 19.63 19.17L22.48 19.17C22.86 19.16 23.15 19.56 23.1 19.93L23.1 45.01C23.1 47.24 22.18 49.66 20.12 50.75C17.58 52.06 14.45 51.79 11.94 50.53L5.56 47C4.06 46.25 3.05 44.63 3.06 42.95L3.06 17.64C3.08 15.83 3.88 14.49 5.47 13.63L27.74 1.03ZM34.2 18.58C37.43 18.39 40.9 18.46 43.82 20.05C46.07 21.28 47.32 23.84 47.36 26.35C47.3 26.69 46.95 26.87 46.62 26.85C45.69 26.85 44.75 26.86 43.8 26.84C43.4 26.86 43.17 26.49 43.12 26.14C42.85 24.94 42.2 23.75 41.07 23.17C39.34 22.3 37.33 22.35 35.44 22.37C34.06 22.44 32.57 22.56 31.41 23.37C30.51 23.98 30.24 25.24 30.56 26.22C30.86 26.94 31.69 27.17 32.36 27.39C36.27 28.41 40.4 28.32 44.23 29.65C45.82 30.2 47.37 31.26 47.91 32.92C48.62 35.14 48.31 37.8 46.73 39.59C45.45 41.06 43.58 41.84 41.72 42.29C39.23 42.85 36.66 42.86 34.14 42.61C31.78 42.34 29.31 41.72 27.48 40.11C25.92 38.75 25.16 36.63 25.23 34.59C25.25 34.25 25.6 34.01 25.93 34.04L28.74 34.04C29.12 34.01 29.4 34.34 29.42 34.69C29.59 35.82 30.02 37.04 31.02 37.69C32.94 38.93 35.35 38.85 37.55 38.88C39.38 38.8 41.43 38.78 42.92 37.57C43.7 36.88 43.94 35.73 43.72 34.74C43.49 33.91 42.6 33.52 41.85 33.24C38 32.02 33.81 32.47 30 31.09C28.45 30.54 26.95 29.5 26.36 27.91C25.53 25.66 25.91 22.87 27.66 21.15C29.34 19.43 31.85 18.82 34.2 18.58Z" fill="#8CC84B" fill-opacity="1.000000" fill-rule="nonzero"/>
	</g>
</svg>
