<svg width="35.000000" height="35.000000" viewBox="0 0 35 35" fill="none" xmlns="http://www.w3.org/2000/svg" xmlns:xlink="http://www.w3.org/1999/xlink">
	<desc>
			Created with Pixso.
	</desc>
	<defs>
		<clipPath id="clip6_23">
			<rect id="9024661_git_pull_request_light_icon" width="35.000000" height="35.000000" fill="white" fill-opacity="0"/>
		</clipPath>
	</defs>
	<g clip-path="url(#clip6_23)">
		<path id="path" d="M0 0L35 0L35 35L0 35L0 0Z" fill="#000000" fill-opacity="0" fill-rule="nonzero"/>
		<circle id="circle" cx="9.296875" cy="25.703125" r="3.828125" fill="#000000" fill-opacity="0"/>
		<circle id="circle" cx="9.296875" cy="25.703125" r="3.828125" stroke="#FFFFFF" stroke-opacity="1.000000" stroke-width="2.000000" stroke-linejoin="round"/>
		<circle id="circle" cx="9.296875" cy="9.296875" r="3.828125" fill="#000000" fill-opacity="0"/>
		<circle id="circle" cx="9.296875" cy="9.296875" r="3.828125" stroke="#FFFFFF" stroke-opacity="1.000000" stroke-width="2.000000" stroke-linejoin="round"/>
		<path id="path" d="M8.31 13.14L8.29 13.12C8.29 12.56 8.73 12.12 9.29 12.12C9.85 12.12 10.29 12.56 10.29 13.12L10.27 13.14L8.31 13.14ZM10.27 21.85L10.29 21.87C10.29 22.43 9.85 22.87 9.29 22.87C8.73 22.87 8.29 22.43 8.29 21.87L8.31 21.85L10.27 21.85Z" fill="#000000" fill-opacity="0" fill-rule="nonzero"/>
		<path id="path" d="M9.29 13.12L9.29 21.87" stroke="#FFFFFF" stroke-opacity="1.000000" stroke-width="2.000000" stroke-linejoin="round" stroke-linecap="round"/>
		<circle id="circle" cx="25.703125" cy="25.703125" r="3.828125" fill="#000000" fill-opacity="0"/>
		<circle id="circle" cx="25.703125" cy="25.703125" r="3.828125" stroke="#FFFFFF" stroke-opacity="1.000000" stroke-width="2.000000" stroke-linejoin="round"/>
		<path id="path" d="M26.68 21.85L26.7 21.87C26.7 22.43 26.26 22.87 25.7 22.87C25.14 22.87 24.7 22.43 24.7 21.87L24.72 21.85L26.68 21.85ZM17.91 7.26L17.88 7.26C17.49 6.87 17.49 6.25 17.88 5.85C18.28 5.45 18.9 5.45 19.3 5.85L19.3 5.88L17.91 7.26Z" fill="#000000" fill-opacity="0" fill-rule="nonzero"/>
		<path id="path" d="M25.7 21.87L25.7 16.39C25.7 15.52 25.53 14.68 25.2 13.87C24.86 13.07 24.39 12.36 23.77 11.74L18.59 6.56" stroke="#FFFFFF" stroke-opacity="1.000000" stroke-width="2.000000" stroke-linejoin="round" stroke-linecap="round"/>
		<path id="path" d="M19.57 12.01L19.59 12.03C19.59 12.59 19.15 13.03 18.59 13.03C18.03 13.03 17.59 12.59 17.59 12.03L17.61 12.01L19.57 12.01ZM24.04 5.58L24.06 5.56C24.62 5.56 25.06 6 25.06 6.56C25.06 7.12 24.62 7.56 24.06 7.56L24.04 7.54L24.04 5.58Z" fill="#000000" fill-opacity="0" fill-rule="nonzero"/>
		<path id="path" d="M18.59 12.03L18.59 6.56L24.06 6.56" stroke="#FFFFFF" stroke-opacity="1.000000" stroke-width="2.000000" stroke-linejoin="round" stroke-linecap="round"/>
	</g>
</svg>
