<svg width="60.000000" height="60.000000" viewBox="0 0 60 60" fill="none" xmlns="http://www.w3.org/2000/svg" xmlns:xlink="http://www.w3.org/1999/xlink">
	<desc>
			Created with Pixso.
	</desc>
	<defs>
		<clipPath id="clip18_50">
			<rect id="postgresql-icon" width="49.000000" height="49.000000" transform="translate(6.000000 7.000000)" fill="white" fill-opacity="0"/>
		</clipPath>
	</defs>
	<rect id="Прямоугольник 12" rx="30.000000" width="60.000000" height="60.000000" fill="#FFFFFF" fill-opacity="1.000000"/>
	<g clip-path="url(#clip18_50)">
		<path id="path" d="M42.33 42.67C42.64 40.07 42.55 39.69 44.48 40.11L44.97 40.15C46.46 40.22 48.4 39.91 49.57 39.38C52.03 38.24 53.48 36.34 51.06 36.84C45.53 37.98 45.13 36.1 45.13 36.1C50.97 27.43 53.41 16.43 51.3 13.73C45.55 6.38 35.6 9.86 35.43 9.95C34.34 9.72 33.08 9.6 31.68 9.58C29.18 9.54 27.28 10.24 25.84 11.33C25.84 11.33 8.08 4.01 8.91 20.53C9.08 24.04 13.94 47.13 19.74 40.15C21.86 37.6 23.91 35.44 23.91 35.44C24.92 36.11 26.14 36.46 27.42 36.33C27.39 36.67 27.5 36.91 27.56 37.24C26.07 38.91 26.51 39.2 23.52 39.82C20.5 40.44 22.28 41.55 23.43 41.84C24.84 42.19 28.09 42.69 30.29 39.61L30.2 39.96C30.78 40.43 30.74 43.33 30.83 45.4C30.92 47.48 31.05 49.41 31.48 50.55C31.9 51.69 32.39 54.63 36.32 53.8C39.6 53.1 42.1 52.07 42.33 42.67Z" fill="#000000" fill-opacity="1.000000" fill-rule="nonzero"/>
		<path id="path" d="M44.48 40.11L44.97 40.15C46.46 40.22 48.4 39.91 49.57 39.38C52.03 38.24 53.48 36.34 51.06 36.84C45.53 37.98 45.13 36.1 45.13 36.1C50.97 27.43 53.41 16.43 51.3 13.73C45.55 6.38 35.6 9.86 35.43 9.95C34.34 9.72 33.08 9.6 31.68 9.58C29.18 9.54 27.28 10.24 25.84 11.33C25.84 11.33 8.08 4.01 8.91 20.53C9.08 24.04 13.94 47.13 19.74 40.15C21.86 37.6 23.91 35.44 23.91 35.44C24.92 36.11 26.14 36.46 27.42 36.33C27.39 36.67 27.5 36.91 27.56 37.24C26.07 38.91 26.51 39.2 23.52 39.82C20.5 40.44 22.28 41.55 23.43 41.84C24.84 42.19 28.09 42.69 30.29 39.61L30.2 39.96C30.78 40.43 30.74 43.33 30.83 45.4C30.92 47.48 31.05 49.41 31.48 50.55C31.9 51.69 32.39 54.63 36.32 53.8C39.6 53.1 42.1 52.07 42.33 42.67C42.64 40.07 42.55 39.69 44.48 40.11Z" stroke="#000000" stroke-opacity="1.000000" stroke-width="5.372500"/>
		<path id="path" d="M51.04 36.85C45.51 38 45.11 36.12 45.11 36.12C50.95 27.45 53.4 16.44 51.29 13.75C45.54 6.4 35.58 9.88 35.42 9.97C34.2 9.72 32.91 9.61 31.67 9.59C29.17 9.56 27.27 10.25 25.82 11.34C25.82 11.34 8.07 4.03 8.89 20.54C9.07 24.06 13.93 47.15 19.73 40.16C21.86 37.6 23.91 35.44 23.91 35.44C24.93 36.11 26.14 36.46 27.42 36.33C27.39 36.67 27.5 36.91 27.56 37.24C26.07 38.91 26.51 39.2 23.52 39.82C20.5 40.44 22.28 41.55 23.43 41.84C24.84 42.19 28.09 42.69 30.29 39.61L30.2 39.96C30.78 40.43 31.19 43.01 31.12 45.35C31.06 47.69 31.01 49.3 31.47 50.55C31.93 51.81 32.39 54.63 36.31 53.81C39.59 53.1 41.29 51.28 41.53 48.24C41.7 46.08 42.08 46.4 42.1 44.47L42.41 43.56C42.76 40.63 42.47 39.69 44.49 40.13L44.98 40.17C46.46 40.24 48.41 39.93 49.55 39.4C52.01 38.26 53.47 36.35 51.04 36.85Z" fill="#336791" fill-opacity="1.000000" fill-rule="nonzero"/>
		<path id="path" d="M45.11 36.12C50.95 27.45 53.4 16.44 51.29 13.75C45.54 6.4 35.58 9.88 35.42 9.97C34.2 9.72 32.91 9.61 31.67 9.59C29.17 9.56 27.27 10.25 25.82 11.34C25.82 11.34 8.07 4.03 8.89 20.54C9.07 24.06 13.93 47.15 19.73 40.16C21.86 37.6 23.91 35.44 23.91 35.44C24.93 36.11 26.14 36.46 27.42 36.33C27.39 36.67 27.5 36.91 27.56 37.24C26.07 38.91 26.51 39.2 23.52 39.82C20.5 40.44 22.28 41.55 23.43 41.84C24.84 42.19 28.09 42.69 30.29 39.61L30.2 39.96C30.78 40.43 31.19 43.01 31.12 45.35C31.06 47.69 31.01 49.3 31.47 50.55C31.93 51.81 32.39 54.63 36.31 53.81C39.59 53.1 41.29 51.28 41.53 48.24C41.7 46.08 42.08 46.4 42.1 44.47L42.41 43.56C42.76 40.63 42.47 39.69 44.49 40.13L44.98 40.17C46.46 40.24 48.41 39.93 49.55 39.4C52.01 38.26 53.47 36.35 51.04 36.85C45.51 38 45.11 36.12 45.11 36.12Z" stroke="#000000" stroke-opacity="0" stroke-width="2.500000"/>
		<path id="path" d="M29.65 38.51L29.63 38.49C29.64 37.99 30.05 37.61 30.55 37.62C31.05 37.63 31.43 38.04 31.42 38.54L31.4 38.56L29.65 38.51ZM42.02 39.09L42.01 39.07C42.07 38.57 42.51 38.23 43.01 38.29C43.5 38.35 43.85 38.79 43.78 39.29L43.76 39.31L42.02 39.09ZM26.13 10.39L26.16 10.38C26.62 10.57 26.84 11.08 26.65 11.54C26.46 12.01 25.94 12.22 25.48 12.03L25.47 12.01L26.13 10.39ZM23.09 34.94L23.09 34.91C23.44 34.55 24 34.54 24.36 34.88C24.72 35.23 24.73 35.79 24.38 36.15L24.36 36.15L23.09 34.94ZM35.13 9.05L35.15 9.03C35.63 8.88 36.12 9.13 36.27 9.61C36.42 10.09 36.16 10.58 35.68 10.73L35.66 10.72L35.13 9.05ZM45.82 36.51L45.83 36.54C45.55 36.95 45 37.06 44.59 36.78C44.17 36.5 44.07 35.95 44.35 35.53L44.37 35.53L45.82 36.51Z" fill="#000000" fill-opacity="0" fill-rule="nonzero"/>
		<path id="path" d="M30.52 38.51C30.37 43.96 30.56 49.45 31.09 50.76C31.62 52.08 32.77 54.69 36.69 53.85C39.97 53.15 41.17 51.79 41.68 48.78L42.89 39.18M25.82 11.21C25.82 11.21 8.05 3.94 8.87 20.46C9.05 23.97 13.91 47.06 19.71 40.08C21.82 37.52 23.74 35.53 23.74 35.53M35.41 9.88C34.8 10.07 45.3 6.04 51.27 13.67C53.37 16.36 50.93 27.36 45.09 36.04" stroke="#FFFFFF" stroke-opacity="1.000000" stroke-width="1.790000" stroke-linejoin="round"/>
		<path id="path" d="M22.18 22.66L22.16 22.64L20.41 22.68L20.39 22.71C20.41 23.21 20.81 23.59 21.31 23.58C21.81 23.56 22.2 23.16 22.18 22.66ZM51.02 36.76C45.58 37.88 45.11 36.11 45.09 36.03C45.15 36.31 44.9 36.39 44.55 36.49C43.86 36.68 42.79 36.98 42.91 39.19C42.99 40.49 47.51 40.25 49.53 39.31C51.99 38.17 53.45 36.26 51.02 36.76Z" fill="#000000" fill-opacity="0" fill-rule="evenodd"/>
		<path id="path" d="M45.09 36.03C45.09 36.03 45.47 37.91 51.02 36.76C53.45 36.26 51.99 38.17 49.53 39.31C47.51 40.25 42.99 40.49 42.91 39.19C42.72 35.85 45.28 36.87 45.09 36.03C44.92 35.28 43.79 34.54 43.03 32.69C42.37 31.09 33.92 18.74 45.37 20.57C45.79 20.49 42.39 9.66 31.67 9.5C20.95 9.35 21.29 22.68 21.29 22.68" stroke="#FFFFFF" stroke-opacity="1.000000" stroke-width="1.790000" stroke-linejoin="bevel"/>
		<path id="path" d="M27.52 37.18C26.03 38.85 26.47 39.14 23.48 39.75C20.46 40.37 22.24 41.48 23.4 41.77C24.8 42.13 28.05 42.62 30.25 39.55C30.92 38.61 30.24 37.12 29.33 36.74C28.88 36.55 28.28 36.32 27.52 37.18Z" fill="#000000" fill-opacity="0" fill-rule="nonzero"/>
		<path id="path" d="M23.48 39.75C20.46 40.37 22.24 41.48 23.4 41.77C24.8 42.13 28.05 42.62 30.25 39.55C30.92 38.61 30.24 37.12 29.33 36.74C28.88 36.55 28.28 36.32 27.52 37.18C26.03 38.85 26.47 39.14 23.48 39.75Z" stroke="#FFFFFF" stroke-opacity="1.000000" stroke-width="1.790000" stroke-linejoin="round"/>
		<path id="path" d="M28.29 36.99L28.31 37.01C28.39 37.5 28.06 37.95 27.56 38.03C27.07 38.11 26.62 37.78 26.54 37.29L26.56 37.26L28.29 36.99ZM27.28 35.4L27.3 35.38C27.8 35.33 28.23 35.68 28.28 36.18C28.33 36.68 27.97 37.11 27.47 37.16L27.45 37.14L27.28 35.4Z" fill="#000000" fill-opacity="0" fill-rule="nonzero"/>
		<path id="path" d="M27.42 37.15C27.27 36.17 27.75 35 28.25 33.63C29.02 31.59 30.77 29.54 29.37 23.03C28.32 18.19 21.29 22.03 21.29 22.68C21.29 23.34 21.61 26.01 21.18 29.12C20.61 33.19 23.76 36.62 27.39 36.27" stroke="#FFFFFF" stroke-opacity="1.000000" stroke-width="1.790000" stroke-linejoin="round" stroke-linecap="round"/>
		<path id="path" d="M25.75 22.59C25.72 22.81 26.16 23.41 26.74 23.49C27.32 23.57 27.81 23.1 27.84 22.88C27.87 22.65 27.43 22.41 26.85 22.32C26.28 22.24 25.78 22.36 25.75 22.59Z" fill="#FFFFFF" fill-opacity="1.000000" fill-rule="nonzero"/>
		<path id="path" d="M26.74 23.49C27.32 23.57 27.81 23.1 27.84 22.88C27.87 22.65 27.43 22.41 26.85 22.32C26.28 22.24 25.78 22.36 25.75 22.59C25.72 22.81 26.16 23.41 26.74 23.49Z" stroke="#FFFFFF" stroke-opacity="1.000000" stroke-width="0.597500"/>
		<path id="path" d="M43.29 22.13C43.32 22.35 42.88 22.95 42.3 23.03C41.73 23.11 41.23 22.64 41.2 22.42C41.18 22.19 41.62 21.95 42.19 21.87C42.77 21.79 43.26 21.91 43.29 22.13Z" fill="#FFFFFF" fill-opacity="1.000000" fill-rule="nonzero"/>
		<path id="path" d="M42.3 23.03C41.73 23.11 41.23 22.64 41.2 22.42C41.18 22.19 41.62 21.95 42.19 21.87C42.77 21.79 43.26 21.91 43.29 22.13C43.32 22.35 42.88 22.95 42.3 23.03Z" stroke="#FFFFFF" stroke-opacity="1.000000" stroke-width="0.297500"/>
		<path id="path" d="M44.48 20.64L44.46 20.62C44.43 20.12 44.8 19.71 45.3 19.68C45.8 19.65 46.22 20.03 46.25 20.53L46.23 20.55L44.48 20.64ZM44.86 34.83L44.86 34.86C44.59 35.28 44.04 35.39 43.62 35.11C43.21 34.83 43.1 34.28 43.38 33.87L43.41 33.86L44.86 34.83Z" fill="#000000" fill-opacity="0" fill-rule="nonzero"/>
		<path id="path" d="M45.35 20.58C45.45 22.34 44.97 23.53 44.91 25.41C44.82 28.13 46.21 31.24 44.12 34.36" stroke="#FFFFFF" stroke-opacity="1.000000" stroke-width="1.790000" stroke-linejoin="round" stroke-linecap="round"/>
	</g>
</svg>
