<svg width="60.000000" height="60.000000" viewBox="0 0 60 60" fill="none" xmlns="http://www.w3.org/2000/svg" xmlns:xlink="http://www.w3.org/1999/xlink">
	<desc>
			Created with Pixso.
	</desc>
	<defs>
		<clipPath id="clip18_12">
			<rect id="react-1-logo-svgrepo-com" rx="29.999998" width="59.999996" height="60.000000" fill="white" fill-opacity="0"/>
		</clipPath>
	</defs>
	<g clip-path="url(#clip18_12)">
		<path id="path" d="M0 0L60 0L60 60L0 60L0 0Z" fill="#222222" fill-opacity="1.000000" fill-rule="nonzero"/>
		<ellipse id="circle" cx="29.953613" cy="29.963501" rx="5.017411" ry="5.017409" fill="#00D8FF" fill-opacity="1.000000"/>
		<path id="path" d="M29.95 19.76C36.68 19.76 42.94 20.72 47.66 22.35C53.34 24.3 56.84 27.27 56.84 29.96C56.84 32.76 53.13 35.91 47.03 37.93C42.42 39.46 36.34 40.26 29.95 40.26C23.39 40.26 17.19 39.51 12.52 37.91C6.61 35.89 3.06 32.7 3.06 29.96C3.06 27.29 6.4 24.35 12 22.4C16.74 20.75 23.15 19.76 29.95 19.76Z" fill="#000000" fill-opacity="0" fill-rule="nonzero"/>
		<path id="path" d="M47.66 22.35C53.34 24.3 56.84 27.27 56.84 29.96C56.84 32.76 53.13 35.91 47.03 37.93C42.42 39.46 36.34 40.26 29.95 40.26C23.39 40.26 17.19 39.51 12.52 37.91C6.61 35.89 3.06 32.7 3.06 29.96C3.06 27.29 6.4 24.35 12 22.4C16.74 20.75 23.15 19.76 29.95 19.76C36.68 19.76 42.94 20.72 47.66 22.35Z" stroke="#00D8FF" stroke-opacity="1.000000" stroke-width="2.000000"/>
		<path id="path" d="M21.07 24.89C24.43 19.05 28.4 14.12 32.16 10.84C36.7 6.89 41.01 5.35 43.34 6.69C45.76 8.09 46.64 12.87 45.35 19.17C44.36 23.93 42.02 29.59 38.83 35.13C35.55 40.81 31.8 45.81 28.09 49.06C23.39 53.17 18.85 54.65 16.47 53.28C14.16 51.95 13.28 47.59 14.39 41.76C15.32 36.83 17.67 30.78 21.07 24.89Z" fill="#000000" fill-opacity="0" fill-rule="nonzero"/>
		<path id="path" d="M32.16 10.84C36.7 6.89 41.01 5.35 43.34 6.69C45.76 8.09 46.64 12.87 45.35 19.17C44.36 23.93 42.02 29.59 38.83 35.13C35.55 40.81 31.8 45.81 28.09 49.06C23.39 53.17 18.85 54.65 16.47 53.28C14.16 51.95 13.28 47.59 14.39 41.76C15.32 36.83 17.67 30.78 21.07 24.89C24.43 19.05 28.4 14.12 32.16 10.84Z" stroke="#00D8FF" stroke-opacity="1.000000" stroke-width="2.000000"/>
		<path id="path" d="M21.08 35.14C17.7 29.31 15.41 23.41 14.45 18.52C13.29 12.62 14.11 8.11 16.43 6.76C18.86 5.36 23.44 6.99 28.25 11.26C31.88 14.48 35.62 19.34 38.82 24.87C42.1 30.55 44.57 36.29 45.52 41.13C46.74 47.25 45.75 51.93 43.38 53.3C41.07 54.64 36.85 53.23 32.35 49.36C28.55 46.08 24.49 41.03 21.08 35.14Z" fill="#000000" fill-opacity="0" fill-rule="nonzero"/>
		<path id="path" d="M14.45 18.52C13.29 12.62 14.11 8.11 16.43 6.76C18.86 5.36 23.44 6.99 28.25 11.26C31.88 14.48 35.62 19.34 38.82 24.87C42.1 30.55 44.57 36.29 45.52 41.13C46.74 47.25 45.75 51.93 43.38 53.3C41.07 54.64 36.85 53.23 32.35 49.36C28.55 46.08 24.49 41.03 21.08 35.14C17.7 29.31 15.41 23.41 14.45 18.52Z" stroke="#00D8FF" stroke-opacity="1.000000" stroke-width="2.000000"/>
	</g>
</svg>
