<svg width="60.000000" height="60.000000" viewBox="0 0 60 60" fill="none" xmlns="http://www.w3.org/2000/svg" xmlns:xlink="http://www.w3.org/1999/xlink">
	<desc>
			Created with Pixso.
	</desc>
	<defs>
		<clipPath id="clip18_40">
			<rect id="redux (1)" width="46.000000" height="46.000000" transform="translate(7.000000 4.000000)" fill="white" fill-opacity="0"/>
		</clipPath>
	</defs>
	<rect id="Прямоугольник 9" rx="30.000000" width="60.000000" height="60.000000" fill="#FFFFFF" fill-opacity="1.000000"/>
	<g clip-path="url(#clip18_40)">
		<path id="path" d="M38.87 36.01C40.57 35.82 41.85 34.29 41.79 32.45C41.74 30.6 40.27 29.13 38.52 29.13L38.4 29.13C36.58 29.19 35.18 30.79 35.24 32.69C35.3 33.61 35.65 34.41 36.18 34.96C34.18 39.08 31.14 42.09 26.58 44.61C23.47 46.33 20.25 46.94 17.03 46.51C14.4 46.14 12.35 44.91 11.06 42.89C9.19 39.88 9.01 36.62 10.6 33.37C11.71 31.03 13.46 29.31 14.58 28.46C14.34 27.66 13.99 26.31 13.81 25.32C5.33 31.77 6.2 40.49 8.78 44.61C10.71 47.68 14.63 49.58 18.97 49.58C20.14 49.58 21.31 49.46 22.48 49.15C29.97 47.62 35.65 42.95 38.87 36.01ZM49.17 28.39C44.72 22.93 38.17 19.92 30.67 19.92L29.74 19.92C29.21 18.81 28.1 18.08 26.87 18.08L26.75 18.08C24.94 18.14 23.53 19.73 23.59 21.64C23.65 23.48 25.11 24.95 26.87 24.95L26.99 24.95C28.27 24.89 29.39 24.03 29.85 22.87L30.91 22.87C35.36 22.87 39.57 24.22 43.38 26.86C46.3 28.89 48.41 31.53 49.58 34.72C50.58 37.3 50.52 39.82 49.46 41.97C47.82 45.22 45.07 47 41.44 47C39.1 47 36.88 46.26 35.71 45.71C35.06 46.33 33.89 47.31 33.07 47.92C35.59 49.15 38.17 49.83 40.62 49.83C46.24 49.83 50.4 46.57 51.98 43.32C53.68 39.76 53.56 33.61 49.17 28.39ZM19.43 37.05C19.49 38.9 20.96 40.37 22.71 40.37L22.83 40.37C24.64 40.31 26.05 38.71 25.99 36.81C25.93 34.96 24.47 33.49 22.71 33.49L22.6 33.49C22.48 33.49 22.3 33.49 22.19 33.55C19.79 29.38 18.79 24.83 19.14 19.92C19.38 16.23 20.55 13.04 22.6 10.4C24.29 8.13 27.57 7.02 29.79 6.96C36 6.84 38.63 14.94 38.81 18.2C39.57 18.38 40.86 18.81 41.74 19.12C41.03 9.17 35.18 4.01 29.56 4.01C24.29 4.01 19.43 8 17.5 13.9C14.81 21.76 16.57 29.31 19.84 35.27C19.55 35.7 19.38 36.38 19.43 37.05Z" fill="#764ABC" fill-opacity="1.000000" fill-rule="nonzero"/>
	</g>
</svg>
