<svg width="60.000000" height="60.000000" viewBox="0 0 60 60" fill="none" xmlns="http://www.w3.org/2000/svg" xmlns:xlink="http://www.w3.org/1999/xlink">
	<desc>
			Created with Pixso.
	</desc>
	<defs/>
	<path id="path" d="M30 0C33.97 0 37.8 0.76 41.48 2.28C45.15 3.8 48.4 5.97 51.21 8.78C54.02 11.59 56.19 14.84 57.71 18.51C59.23 22.19 60 26.02 60 30C60 33.97 59.23 37.8 57.71 41.48C56.19 45.15 54.02 48.4 51.21 51.21C48.4 54.02 45.15 56.19 41.48 57.71C37.8 59.23 33.97 60 30 60C26.02 60 22.19 59.23 18.51 57.71C14.84 56.19 11.59 54.02 8.78 51.21C5.97 48.4 3.8 45.15 2.28 41.48C0.76 37.8 0 33.97 0 30C0 26.02 0.76 22.19 2.28 18.51C3.8 14.84 5.97 11.59 8.78 8.78C11.59 5.97 14.84 3.8 18.51 2.28C22.19 0.76 26.02 0 30 0Z" fill="#CC6699" fill-opacity="1.000000" fill-rule="evenodd"/>
	<path id="path" d="M48.81 12.84C47.46 7.51 38.62 5.76 30.26 8.72C24.97 10.5 20.22 13.22 16.02 16.89C11.42 21.2 10.68 24.95 10.98 26.52C12.05 32.04 19.63 35.66 22.74 38.34C21.82 38.79 15.1 42.21 13.52 45.68C11.87 49.35 13.79 51.98 15.06 52.33C17.03 52.81 18.94 52.66 20.81 51.91C22.68 51.15 24.16 49.92 25.24 48.21C27.11 45.31 27.44 42.25 26.25 39.02C27.76 38.64 29.29 38.55 30.84 38.76C36.1 39.37 37.14 42.66 36.94 44.03C36.74 45.07 36.19 45.86 35.27 46.39C34.9 46.62 34.79 46.7 34.82 46.87C34.87 47.11 35.03 47.11 35.35 47.05C37.14 46.49 38.1 45.27 38.21 43.39C38.34 40.18 35.25 36.57 29.78 36.66C28.18 36.61 26.62 36.83 25.09 37.3C25.02 37.22 24.94 37.13 24.86 37.05C21.48 33.44 15.23 30.89 15.49 26.04C15.59 24.27 16.2 19.63 27.49 14C36.75 9.39 44.16 10.66 45.44 13.47C47.27 17.49 41.48 24.96 31.87 26.04C29.6 26.5 27.58 25.99 25.8 24.5C25.29 23.94 25.22 23.92 25.03 24.02C24.72 24.19 24.92 24.68 25.03 24.97C25.81 26.37 26.96 27.28 28.5 27.7C32.38 28.55 36.13 28.18 39.77 26.59C45.6 24.34 50.15 18.07 48.81 12.84ZM24.03 39.99C24.47 41.49 24.45 42.98 23.97 44.47C23.92 44.62 23.87 44.77 23.81 44.92C23.75 45.07 23.68 45.21 23.61 45.35C23.25 46.09 22.79 46.76 22.23 47.37C20.48 49.27 18.05 49.99 17 49.38C15.88 48.73 16.44 46.05 18.46 43.91C20.02 42.37 21.79 41.11 23.76 40.14L24.03 39.99Z" fill="#FFFFFF" fill-opacity="1.000000" fill-rule="nonzero"/>
</svg>
