<svg width="60.000000" height="60.000000" viewBox="0 0 60 60" fill="none" xmlns="http://www.w3.org/2000/svg" xmlns:xlink="http://www.w3.org/1999/xlink">
	<desc>
			Created with Pixso.
	</desc>
	<defs>
		<clipPath id="clip18_25">
			<rect id="typescript-icon-svgrepo-com" rx="30.000000" width="60.000000" height="60.000000" fill="white" fill-opacity="0"/>
		</clipPath>
	</defs>
	<g clip-path="url(#clip18_25)">
		<path id="polygon" d="M0 30L0 60L30 60L60 60L60 30L60 0L30 0L0 0L0 30Z" fill="#007ACC" fill-opacity="1.000000" fill-rule="nonzero"/>
		<path id="path" d="M13.26 30.19L13.24 32.65L17.15 32.65L21.05 32.65L21.05 43.75L21.05 54.84L23.82 54.84L26.58 54.84L26.58 43.75L26.58 32.65L30.48 32.65L34.39 32.65L34.39 30.24C34.39 28.91 34.36 27.79 34.32 27.77C34.29 27.73 29.54 27.71 23.78 27.72L13.29 27.75L13.26 30.19Z" fill="#FFFFFF" fill-opacity="1.000000" fill-rule="nonzero"/>
		<path id="path" d="M48.41 27.68C49.93 28.06 51.09 28.73 52.16 29.84C52.71 30.43 53.53 31.51 53.6 31.76C53.62 31.84 51.01 33.59 49.43 34.57C49.37 34.61 49.14 34.36 48.89 33.98C48.11 32.86 47.3 32.37 46.07 32.29C44.25 32.16 43.08 33.11 43.09 34.71C43.09 35.17 43.15 35.45 43.34 35.83C43.74 36.66 44.49 37.15 46.82 38.16C51.11 40.01 52.95 41.23 54.09 42.96C55.37 44.9 55.66 47.98 54.79 50.28C53.84 52.77 51.48 54.47 48.15 55.03C47.12 55.21 44.69 55.18 43.58 54.98C41.17 54.55 38.89 53.36 37.48 51.8C36.92 51.19 35.85 49.6 35.91 49.49C35.94 49.45 36.19 49.3 36.47 49.13C36.73 48.98 37.74 48.4 38.69 47.85L40.42 46.85L40.78 47.38C41.29 48.15 42.39 49.21 43.06 49.56C44.97 50.57 47.6 50.43 48.89 49.27C49.45 48.76 49.68 48.24 49.68 47.47C49.68 46.77 49.59 46.47 49.23 45.94C48.76 45.28 47.81 44.71 45.1 43.54C42.01 42.21 40.68 41.38 39.46 40.07C38.75 39.31 38.09 38.09 37.81 37.07C37.58 36.22 37.52 34.1 37.7 33.24C38.34 30.25 40.6 28.16 43.86 27.54C44.91 27.34 47.37 27.42 48.41 27.68Z" fill="#FFFFFF" fill-opacity="1.000000" fill-rule="nonzero"/>
	</g>
</svg>
